<svg fill="#800000" xmlns="http://www.w3.org/2000/svg" xmlns:xlink="http://www.w3.org/1999/xlink" version="1.1" x="0px" y="0px" viewBox="0 0 20 20" enable-background="new 0 0 20 20" xml:space="preserve"><g><path fill="#FFFDF7" d="M10,0C4.5,0,0,4.5,0,10c0,5.5,4.5,10,10,10c5.5,0,10-4.5,10-10C20,4.5,15.5,0,10,0z M5.1,16.3   C5.4,13.9,7.5,12,10,12c2.5,0,4.6,1.9,4.9,4.3C13.6,17.4,11.9,18,10,18C8.1,18,6.4,17.4,5.1,16.3z M16.6,14.6   C15.6,11.9,13,10,10,10c-3,0-5.6,1.9-6.6,4.6C2.5,13.3,2,11.7,2,10c0-4.4,3.6-8,8-8c4.4,0,8,3.6,8,8C18,11.7,17.5,13.3,16.6,14.6z"></path><path fill="#FFFDF7" d="M10,3C8.3,3,7,4.3,7,6s1.3,3,3,3s3-1.3,3-3S11.7,3,10,3z M10,7C9.4,7,9,6.6,9,6c0-0.6,0.4-1,1-1   c0.6,0,1,0.4,1,1C11,6.6,10.6,7,10,7z"></path></g></svg>
